<svg width="20" height="20" viewBox="0 0 20 20" fill="none" xmlns="http://www.w3.org/2000/svg">
<path d="M17.1888 4.03784H2.81119C2.67562 4.038 2.54566 4.09194 2.44982 4.18782C2.35398 4.28369 2.30009 4.41368 2.29999 4.54924V5.57804C2.29999 5.62544 2.35139 5.67984 2.39339 5.70184L9.95059 10.0184C9.96995 10.0295 9.99189 10.0352 10.0142 10.035C10.037 10.0351 10.0594 10.029 10.079 10.0174L17.4078 5.70604C17.449 5.68304 17.5582 5.62224 17.5992 5.59424C17.6488 5.56044 17.7 5.52984 17.7 5.46924V4.54904C17.6998 4.41351 17.6459 4.28358 17.5501 4.18774C17.4543 4.09191 17.3243 4.038 17.1888 4.03784Z" fill="black"/>
<path d="M17.6364 7.12922C17.6167 7.118 17.5945 7.11217 17.5718 7.11231C17.5492 7.11245 17.5269 7.11856 17.5074 7.13002L13.36 9.57022C13.3435 9.57985 13.3293 9.59308 13.3186 9.60892C13.3079 9.62477 13.3009 9.64282 13.2981 9.66174C13.2953 9.68067 13.2968 9.69997 13.3025 9.71823C13.3082 9.73649 13.318 9.75324 13.331 9.76722L17.479 14.2386C17.4909 14.2515 17.5053 14.2618 17.5214 14.2688C17.5375 14.2759 17.5549 14.2795 17.5724 14.2794C17.6063 14.2794 17.6388 14.2659 17.6627 14.2419C17.6867 14.218 17.7002 14.1855 17.7002 14.1516V7.24022C17.7003 7.21774 17.6944 7.19563 17.6832 7.17614C17.672 7.15665 17.6559 7.14046 17.6364 7.12922Z" fill="black"/>
<path d="M12.1648 10.3897C12.1451 10.3682 12.1186 10.3542 12.0899 10.3499C12.0611 10.3456 12.0317 10.3513 12.0066 10.3661L10.3442 11.3443C10.2468 11.4006 10.1364 11.4305 10.0239 11.4313C9.91145 11.432 9.80071 11.4035 9.70258 11.3485L8.23958 10.5127C8.21596 10.4992 8.18868 10.4936 8.16167 10.4967C8.13467 10.4998 8.10935 10.5114 8.08938 10.5299L2.53378 15.6831C2.51922 15.6967 2.50804 15.7135 2.50113 15.7322C2.49422 15.7509 2.49177 15.771 2.49399 15.7908C2.4962 15.8106 2.50301 15.8296 2.51388 15.8464C2.52475 15.8631 2.53937 15.877 2.55658 15.8871C2.64298 15.9379 2.72638 15.9621 2.81118 15.9621H17.0418C17.0667 15.9621 17.0911 15.9549 17.1119 15.9412C17.1327 15.9275 17.149 15.908 17.1588 15.8851C17.1688 15.8623 17.1718 15.8371 17.1677 15.8126C17.1635 15.7881 17.1522 15.7654 17.1352 15.7473L12.1648 10.3897Z" fill="black"/>
<path d="M6.86679 9.92028C6.8815 9.90668 6.89281 9.88981 6.8998 9.87102C6.90679 9.85224 6.90927 9.83208 6.90703 9.81217C6.90479 9.79225 6.8979 9.77314 6.88692 9.75638C6.87593 9.73962 6.86116 9.72568 6.84379 9.71568L2.49059 7.22928C2.47116 7.21825 2.44918 7.21252 2.42684 7.21265C2.4045 7.21278 2.38258 7.21877 2.36329 7.23003C2.34399 7.24129 2.32799 7.25742 2.31688 7.2768C2.30577 7.29618 2.29995 7.31814 2.29999 7.34048V13.8645C2.29985 13.8894 2.30702 13.9138 2.32061 13.9347C2.3342 13.9556 2.35362 13.972 2.37645 13.982C2.39929 13.9919 2.42455 13.995 2.4491 13.9907C2.47366 13.9865 2.49642 13.9751 2.51459 13.9581L6.86679 9.92028Z" fill="black"/>
</svg>
