<svg width="20" height="20" viewBox="0 0 20 20" fill="none" xmlns="http://www.w3.org/2000/svg">
<path d="M12.7064 13.425L14.1064 12.025C14.295 11.8388 14.5335 11.7113 14.7931 11.658C15.0528 11.6048 15.3222 11.628 15.5689 11.725L17.2751 12.4062C17.5244 12.5074 17.7381 12.6801 17.8894 12.9026C18.0407 13.125 18.1227 13.3873 18.1251 13.6562V16.7812C18.1237 16.9642 18.0852 17.145 18.0121 17.3128C17.9389 17.4805 17.8325 17.6317 17.6994 17.7572C17.5663 17.8828 17.4091 17.9801 17.2374 18.0433C17.0656 18.1065 16.8829 18.1343 16.7001 18.125C4.74389 17.3812 2.33139 7.25624 1.87514 3.38124C1.85397 3.19096 1.87332 2.99834 1.93192 2.81606C1.99053 2.63379 2.08707 2.46599 2.21519 2.32371C2.3433 2.18142 2.50009 2.06787 2.67524 1.99053C2.85039 1.9132 3.03993 1.87382 3.23139 1.875H6.25014C6.51953 1.87579 6.78251 1.95716 7.00527 2.10864C7.22803 2.26011 7.40037 2.47477 7.50014 2.725L8.18139 4.43125C8.28155 4.67691 8.30711 4.94665 8.25486 5.20675C8.20262 5.46686 8.07489 5.70581 7.88764 5.89375L6.48764 7.29375C6.48764 7.29375 7.29389 12.75 12.7064 13.425Z" fill="black"/>
</svg>
