<svg width="24" height="29" viewBox="0 0 24 29" fill="none" xmlns="http://www.w3.org/2000/svg">
<rect width="24" height="29" fill="white"/>
<path d="M21.0701 0H2.93482C1.31595 0 0 2.08945 0 4.65987V24.3401C0 26.9105 1.31595 29 2.93482 29H21.0652C22.684 29 24 26.9105 24 24.3401V4.66775C24.005 2.09734 22.689 0 21.0701 0ZM22.6642 24.3401C22.6642 25.7357 21.9491 26.8711 21.0701 26.8711H2.93482C2.05586 26.8711 1.34078 25.7357 1.34078 24.3401V4.66775C1.34078 3.27216 2.05586 2.13676 2.93482 2.13676H21.0652C21.9441 2.13676 22.6592 3.27216 22.6592 4.66775V24.3401H22.6642Z" fill="black"/>
<path d="M15.1359 14.2556L21.0055 5.89775C21.2786 5.50352 21.3035 4.83331 21.0552 4.39177C20.8069 3.95811 20.3848 3.91869 20.1067 4.31292L12.0123 15.8483L10.4332 13.609C10.4282 13.6011 10.4233 13.5932 10.4233 13.5854C10.3885 13.5302 10.3538 13.4829 10.314 13.4355L3.88821 4.30504C3.61012 3.9108 3.18802 3.95023 2.93973 4.39177C2.69144 4.83331 2.71626 5.50352 2.99435 5.89775L8.93352 14.3265L3.01918 23.118C2.75103 23.5201 2.73613 24.1903 2.98939 24.624C3.12346 24.8447 3.30224 24.963 3.48101 24.963C3.64488 24.963 3.80875 24.8684 3.93787 24.6792L9.94159 15.7615L11.5704 18.0718C11.6995 18.2531 11.8584 18.3398 12.0173 18.3398C12.1762 18.3398 12.3401 18.2452 12.4642 18.0639L14.1377 15.6827L20.1067 24.687C20.2358 24.8842 20.4046 24.9788 20.5685 24.9788C20.7473 24.9788 20.9211 24.8684 21.0552 24.6476C21.3084 24.2218 21.2985 23.5438 21.0303 23.1416L15.1359 14.2556Z" fill="black"/>
</svg>
