<svg width="12" height="18" viewBox="0 0 12 18" fill="none" xmlns="http://www.w3.org/2000/svg">
<path d="M11.8333 6.50002C11.8333 5.73398 11.6824 4.97543 11.3893 4.2677C11.0961 3.55997 10.6665 2.91691 10.1248 2.37523C9.58311 1.83356 8.94004 1.40388 8.23231 1.11072C7.52458 0.817571 6.76604 0.666687 5.99999 0.666687C5.23395 0.666687 4.4754 0.817571 3.76767 1.11072C3.05994 1.40388 2.41688 1.83356 1.8752 2.37523C1.33353 2.91691 0.903845 3.55997 0.610692 4.2677C0.31754 4.97543 0.166656 5.73398 0.166656 6.50002C0.166656 7.65585 0.508323 8.73085 1.08749 9.63752H1.08082C3.04749 12.7167 5.99999 17.3334 5.99999 17.3334L10.9192 9.63752H10.9133C11.5137 8.70116 11.8329 7.61231 11.8333 6.50002ZM5.99999 9.00002C5.33695 9.00002 4.70106 8.73663 4.23222 8.26779C3.76338 7.79895 3.49999 7.16306 3.49999 6.50002C3.49999 5.83698 3.76338 5.20109 4.23222 4.73225C4.70106 4.26341 5.33695 4.00002 5.99999 4.00002C6.66303 4.00002 7.29892 4.26341 7.76776 4.73225C8.2366 5.20109 8.49999 5.83698 8.49999 6.50002C8.49999 7.16306 8.2366 7.79895 7.76776 8.26779C7.29892 8.73663 6.66303 9.00002 5.99999 9.00002Z" fill="black"/>
</svg>
