<?xml version="1.0" ?><svg id="OBJECT" viewBox="0 0 512 512" xmlns="http://www.w3.org/2000/svg"><defs><style>.cls-1{fill:#fff;}.cls-2{fill:#3d9ae2;}.cls-3{fill:#bddbff;}</style></defs><title/><polygon class="cls-1" points="182.5 347.5 132.5 347.5 117.5 267.5 167.5 267.5 182.5 347.5"/><path class="cls-2" d="M182.5,355h-50a7.49,7.49,0,0,1-7.37-6.12l-15-80A7.5,7.5,0,0,1,117.5,260h50a7.49,7.49,0,0,1,7.37,6.12l15,80A7.5,7.5,0,0,1,182.5,355Zm-43.78-15h34.74l-12.18-65H126.54Z"/><path class="cls-3" d="M134.44,431h-9.59a20,20,0,0,1-19.8-17.17L87.5,291h50l16.74,117.17A20,20,0,0,1,134.44,431Z"/><path class="cls-2" d="M134.44,438.5h-9.59a27.64,27.64,0,0,1-27.23-23.61L80.08,292.06a7.49,7.49,0,0,1,7.42-8.56h50a7.49,7.49,0,0,1,7.42,6.44l16.74,117.17a27.5,27.5,0,0,1-27.22,31.39Zm-38.29-140,16.32,114.27a12.57,12.57,0,0,0,12.38,10.73h9.59a12.5,12.5,0,0,0,12.37-14.27L131,298.5Z"/><circle class="cls-1" cx="434.5" cy="231" r="70"/><path class="cls-2" d="M434.5,308.5A77.5,77.5,0,1,1,512,231,77.59,77.59,0,0,1,434.5,308.5Zm0-140A62.5,62.5,0,1,0,497,231,62.57,62.57,0,0,0,434.5,168.5Z"/><rect class="cls-3" height="160" rx="20" ry="20" width="140" x="67.5" y="151"/><path class="cls-2" d="M187.5,318.5H87.5A27.54,27.54,0,0,1,60,291V171a27.54,27.54,0,0,1,27.5-27.5h100A27.54,27.54,0,0,1,215,171V291A27.54,27.54,0,0,1,187.5,318.5Zm-100-160A12.52,12.52,0,0,0,75,171V291a12.52,12.52,0,0,0,12.5,12.5h100A12.52,12.52,0,0,0,200,291V171a12.52,12.52,0,0,0-12.5-12.5Z"/><polygon class="cls-3" points="207.5 291 432.5 361 432.5 101 207.5 171 207.5 291"/><path class="cls-2" d="M432.5,368.5a7.41,7.41,0,0,1-2.23-.34l-225-70A7.5,7.5,0,0,1,200,291V171a7.5,7.5,0,0,1,5.27-7.16l225-70A7.5,7.5,0,0,1,440,101V361a7.49,7.49,0,0,1-7.5,7.5Zm-217.5-83,210,65.33V111.19L215,176.52Z"/><rect class="cls-3" height="300" rx="20" ry="20" width="40" x="412.5" y="81"/><path class="cls-2" d="M432.5,388.5A27.54,27.54,0,0,1,405,361V101a27.5,27.5,0,0,1,55,0V361A27.54,27.54,0,0,1,432.5,388.5Zm0-300A12.52,12.52,0,0,0,420,101V361a12.5,12.5,0,0,0,25,0V101A12.52,12.52,0,0,0,432.5,88.5Z"/><path class="cls-1" d="M27.5,191h40a0,0,0,0,1,0,0v80a0,0,0,0,1,0,0h-40a20,20,0,0,1-20-20V211A20,20,0,0,1,27.5,191Z"/><path class="cls-2" d="M67.5,278.5h-40A27.54,27.54,0,0,1,0,251V211a27.54,27.54,0,0,1,27.5-27.5h40A7.5,7.5,0,0,1,75,191v80A7.5,7.5,0,0,1,67.5,278.5Zm-40-80A12.52,12.52,0,0,0,15,211v40a12.52,12.52,0,0,0,12.5,12.5H60v-65Z"/><path class="cls-2" d="M172.5,198.5h-70a7.5,7.5,0,0,1,0-15h70a7.5,7.5,0,0,1,0,15Z"/><path class="cls-2" d="M172.5,238.5h-70a7.5,7.5,0,0,1,0-15h70a7.5,7.5,0,0,1,0,15Z"/><path class="cls-2" d="M172.5,278.5h-70a7.5,7.5,0,0,1,0-15h70a7.5,7.5,0,0,1,0,15Z"/></svg>