<svg width="15" height="29" viewBox="0 0 15 29" fill="none" xmlns="http://www.w3.org/2000/svg">
<path d="M12.6307 0H1.66178C0.747942 0 0 0.865806 0 1.92546V26.581C0 27.6406 0.747942 28.5073 1.66178 28.5073H12.6307C13.5445 28.5073 14.2924 27.6423 14.2924 26.5818V1.92546C14.2924 0.865806 13.5445 0 12.6307 0ZM5.39165 1.3879H8.9008C9.01186 1.3879 9.10184 1.49215 9.10184 1.62166C9.10184 1.75035 9.01186 1.8546 8.9008 1.8546H5.39165C5.28059 1.8546 5.19061 1.75035 5.19061 1.62166C5.19061 1.49215 5.28059 1.3879 5.39165 1.3879ZM7.14622 27.5445C6.6872 27.5445 6.31533 27.1137 6.31533 26.581C6.31533 26.0483 6.6872 25.6183 7.14622 25.6183C7.60525 25.6183 7.97712 26.0483 7.97712 26.581C7.97712 27.1137 7.60525 27.5445 7.14622 27.5445ZM13.1361 24.9439H1.15636V3.05354H13.1361V24.9439Z" fill="black"/>
</svg>
