<svg width="20" height="23" viewBox="0 0 20 23" fill="none" xmlns="http://www.w3.org/2000/svg">
<path d="M13.072 3.24491C10.0858 -0.0829811 5.22543 -0.0829811 2.23919 3.24491C-0.746398 6.57353 -0.746398 11.9892 2.23919 15.3178C4.89852 18.2807 9.04029 18.5981 12.0246 16.2845C12.0874 16.6157 12.2311 16.9316 12.4622 17.1892L16.8111 22.0357C17.4449 22.7405 18.469 22.7405 19.0995 22.0357C19.7326 21.3301 19.7326 20.1888 19.0995 19.4855L14.7506 14.6375C14.5208 14.3821 14.2366 14.2213 13.9395 14.1513C16.0168 10.8248 15.732 6.20994 13.072 3.24491ZM11.699 13.7877C9.46948 16.2723 5.84107 16.2723 3.61223 13.7877C1.38404 11.3031 1.38404 7.26032 3.61223 4.77576C5.84107 2.29192 9.46948 2.29192 11.699 4.77576C13.9285 7.26032 13.9285 11.3031 11.699 13.7877Z" fill="black"/>
</svg>
