<svg width="24" height="24" viewBox="0 0 24 24" fill="none" xmlns="http://www.w3.org/2000/svg">
<path d="M12 0.284996C8.2137 0.284996 5.1333 3.08332 5.1333 6.52289C5.1333 9.96247 8.2137 12.7608 12 12.7608C15.7863 12.7608 18.8667 9.96247 18.8667 6.52289C18.8667 3.08332 15.7863 0.284996 12 0.284996ZM12 11.3746C9.0551 11.3746 6.65923 9.19812 6.65923 6.52289C6.65923 3.84767 9.0551 1.67119 12 1.67119C14.9449 1.67119 17.3408 3.84767 17.3408 6.52289C17.3408 9.19812 14.9449 11.3746 12 11.3746Z" fill="white"/>
<path d="M20.5435 16.836C18.6636 15.1019 16.1714 14.147 13.526 14.147H10.4741C7.82875 14.147 5.33649 15.1019 3.45654 16.836C1.5858 18.5615 0.555542 20.8392 0.555542 23.2497C0.555542 23.6325 0.897147 23.9428 1.31851 23.9428H22.6816C23.1029 23.9428 23.4445 23.6325 23.4445 23.2497C23.4445 20.8392 22.4143 18.5615 20.5435 16.836ZM2.11505 22.5566C2.49729 18.6251 6.10032 15.5332 10.4741 15.5332H13.526C17.8997 15.5332 21.5028 18.6251 21.885 22.5566H2.11505Z" fill="white"/>
</svg>
