<svg width="27" height="24" viewBox="0 0 27 24" fill="none" xmlns="http://www.w3.org/2000/svg">
<path d="M18.4067 18.157V20.0098C18.4067 22.0531 16.5769 23.7153 14.3277 23.7153H4.07905C1.8298 23.7153 0 22.0531 0 20.0098V3.70552C0 1.66224 1.8298 0 4.07905 0H14.3277C16.5769 0 18.4067 1.66224 18.4067 3.70552V5.55828C18.4067 6.06996 17.9502 6.48466 17.3869 6.48466C16.8237 6.48466 16.3672 6.06996 16.3672 5.55828V3.70552C16.3672 2.68397 15.4522 1.85276 14.3277 1.85276H4.07905C2.95452 1.85276 2.03952 2.68397 2.03952 3.70552V20.0098C2.03952 21.0314 2.95452 21.8626 4.07905 21.8626H14.3277C15.4522 21.8626 16.3672 21.0314 16.3672 20.0098V18.157C16.3672 17.6454 16.8237 17.2307 17.3869 17.2307C17.9502 17.2307 18.4067 17.6454 18.4067 18.157ZM25.3592 10.2663L23.0757 8.19195C22.6774 7.83008 22.0316 7.83008 21.6335 8.19195C21.2351 8.55363 21.2351 9.14022 21.6335 9.50191L23.2577 10.9776H11.0134C10.4502 10.9776 9.99367 11.3923 9.99367 11.904C9.99367 12.4157 10.4502 12.8304 11.0134 12.8304H23.2577L21.6335 14.3061C21.2351 14.6677 21.2351 15.2543 21.6335 15.616C21.8327 15.7969 22.0936 15.8874 22.3545 15.8874C22.6156 15.8874 22.8765 15.7969 23.0757 15.616L25.3592 13.5416C26.3533 12.6386 26.3533 11.1694 25.3592 10.2663Z" fill="white"/>
</svg>
