<svg width="28" height="21" viewBox="0 0 28 21" fill="none" xmlns="http://www.w3.org/2000/svg">
<path d="M26.2215 13.1369V6.3436L26.532 6.25898C27.7253 5.93362 27.9758 5.3828 27.9758 4.97798C27.9758 4.57317 27.7252 4.02234 26.5319 3.69713L16.3201 0.914077C15.6911 0.742669 14.8668 0.648285 13.9991 0.648285C13.1314 0.648285 12.3072 0.742669 11.6781 0.914077L1.46625 3.69713C0.272762 4.02234 0.0222168 4.57317 0.0222168 4.97803C0.0222168 5.38285 0.272707 5.93372 1.4662 6.25903L5.28541 7.29988V12.9082C5.28541 13.6046 5.78372 14.5856 8.15765 15.3045C9.73004 15.7806 11.8046 16.0428 13.999 16.0428C16.1934 16.0428 18.268 15.7806 19.8404 15.3045C22.2143 14.5856 22.7126 13.6046 22.7126 12.9082V7.29993L24.5836 6.79002V13.1369C23.5651 13.4485 22.8292 14.3236 22.8292 15.3526V18.54C22.8292 19.829 23.9835 20.8776 25.4025 20.8776C26.8214 20.8776 27.9758 19.829 27.9758 18.54V15.3526C27.9759 14.3236 27.24 13.4484 26.2215 13.1369ZM12.1487 2.33926C12.6223 2.21015 13.2967 2.13616 13.9991 2.13616C14.7014 2.13616 15.3759 2.21015 15.8494 2.33921L25.532 4.97803L21.6543 6.03485C21.6521 6.0355 21.6499 6.03604 21.6477 6.03669L15.8495 7.61691C15.3759 7.74596 14.7015 7.81996 13.9992 7.81996C13.2969 7.81996 12.6224 7.74596 12.1488 7.61691L6.3506 6.03669C6.34836 6.03604 6.34618 6.0355 6.34394 6.03485L2.46625 4.97803L12.1487 2.33926ZM21.0748 10.9545C21.0748 13.0041 20.7775 13.4523 19.3225 13.8928C17.9127 14.3198 16.0221 14.5549 13.9991 14.5549C11.976 14.5549 10.0854 14.3198 8.67566 13.8928C7.22077 13.4523 6.92332 13.0041 6.92332 12.9082V7.74621L11.6781 9.04204C12.3071 9.21345 13.1314 9.30783 13.9991 9.30783C14.8668 9.30783 15.691 9.21345 16.3201 9.04204L21.0748 7.74621V10.9545ZM26.338 18.5399C26.338 19.0085 25.9184 19.3897 25.4026 19.3897C24.8868 19.3897 24.4672 19.0085 24.4672 18.5399V15.3525C24.4672 14.8839 24.8867 14.5027 25.4026 14.5027C25.9184 14.5027 26.338 14.8839 26.338 15.3525V18.5399Z" fill="white"/>
</svg>
