<svg width="26" height="24" viewBox="0 0 26 24" fill="none" xmlns="http://www.w3.org/2000/svg">
<path d="M25.3004 10.5863C25.2998 10.5858 25.2992 10.5852 25.2986 10.5847L14.6926 0.950326C14.2406 0.539471 13.6395 0.313141 13.0002 0.313141C12.3609 0.313141 11.7598 0.539291 11.3075 0.950146L0.70715 10.5796C0.703579 10.5829 0.700008 10.5863 0.696438 10.5896C-0.231907 11.4378 -0.23032 12.8139 0.701 13.66C1.12649 14.0467 1.68846 14.2707 2.2893 14.2941C2.3137 14.2963 2.3383 14.2973 2.36309 14.2973H2.78581V21.3877C2.78581 22.7907 4.04245 23.9323 5.58731 23.9323H9.73669C10.1572 23.9323 10.4984 23.6225 10.4984 23.2403V17.6815C10.4984 17.0412 11.0717 16.5205 11.7765 16.5205H14.2239C14.9287 16.5205 15.5019 17.0412 15.5019 17.6815V23.2403C15.5019 23.6225 15.8429 23.9323 16.2637 23.9323H20.4131C21.9579 23.9323 23.2146 22.7907 23.2146 21.3877V14.2973H23.6065C24.2456 14.2973 24.8467 14.0712 25.2992 13.6603C26.2315 12.8129 26.2319 11.4343 25.3004 10.5863Z" fill="white"/>
</svg>
