<svg width="26" height="25" viewBox="0 0 26 25" fill="none" xmlns="http://www.w3.org/2000/svg">
<path d="M13.8125 18.75H17.0625V21.875H13.8125V18.75Z" fill="white"/>
<path d="M19.5 18.75H22.75V21.875H19.5V18.75Z" fill="white"/>
<path d="M13.8125 13.2812H17.0625V16.4062H13.8125V13.2812Z" fill="white"/>
<path d="M19.5 13.2812H22.75V16.4062H19.5V13.2812Z" fill="white"/>
<path d="M22.75 8.59375H17.875V5.46875C17.875 4.14062 16.8188 3.125 15.4375 3.125H10.5625C9.18125 3.125 8.125 4.14062 8.125 5.46875V8.59375H3.25C2.7625 8.59375 2.4375 8.90625 2.4375 9.375V9.53125L3.98125 18.9844C4.0625 19.7656 4.79375 20.3125 5.60625 20.3125H12.1875V18.75H5.60625L4.225 10.1562H22.75V8.59375ZM9.75 5.46875C9.75 5 10.075 4.6875 10.5625 4.6875H15.4375C15.925 4.6875 16.25 5 16.25 5.46875V8.59375H9.75V5.46875Z" fill="white"/>
</svg>
