<svg width="26" height="23" viewBox="0 0 26 23" fill="none" xmlns="http://www.w3.org/2000/svg">
<path d="M18.9881 1.84C19.6641 1.83944 20.3333 1.9726 20.9567 2.23169C21.58 2.49077 22.1449 2.87057 22.6181 3.3488C23.5933 4.32987 24.14 5.65171 24.14 7.0288C24.14 8.4059 23.5933 9.72773 22.6181 10.7088L13 20.3596L3.38186 10.7088C2.40666 9.72773 1.86003 8.4059 1.86003 7.0288C1.86003 5.65171 2.40666 4.32987 3.38186 3.3488C3.85542 2.87091 4.42034 2.49132 5.0436 2.23219C5.66686 1.97307 6.33598 1.83961 7.01187 1.83961C7.68776 1.83961 8.35688 1.97307 8.98014 2.23219C9.60341 2.49132 10.1683 2.87091 10.6419 3.3488L13 5.7408L15.3488 3.3672C15.8207 2.88327 16.3862 2.49859 17.0115 2.23619C17.6368 1.97378 18.3091 1.83904 18.9881 1.84ZM18.9881 2.46822e-06C18.065 -0.000772835 17.1509 0.181109 16.2996 0.534984C15.4483 0.888859 14.6769 1.4076 14.0305 2.0608L13 3.0912L11.9695 2.0608C11.3223 1.40878 10.5507 0.890939 9.69956 0.537458C8.8484 0.183976 7.93475 0.00192963 7.01187 0.00192963C6.08899 0.00192963 5.17534 0.183976 4.32419 0.537458C3.47303 0.890939 2.70139 1.40878 2.05426 2.0608C0.737685 3.38894 0 5.17625 0 7.038C0 8.89975 0.737685 10.6871 2.05426 12.0152L13 23L23.9457 12.0152C25.2623 10.6871 26 8.89975 26 7.038C26 5.17625 25.2623 3.38894 23.9457 2.0608C23.2988 1.40843 22.5272 0.890234 21.676 0.536419C20.8249 0.182604 19.9111 0.00025401 18.9881 2.46822e-06Z" fill="white"/>
</svg>
