<svg width="46" height="40" viewBox="0 0 46 40" fill="none" xmlns="http://www.w3.org/2000/svg">
<path d="M28.0967 29.6787C27.5421 30.148 26.8167 30.532 25.9207 30.8307C25.0674 31.0867 24.0647 31.2147 22.9127 31.2147C21.3767 31.2147 20.0967 31.0227 19.0727 30.6387C18.0914 30.2547 17.4514 29.5933 17.1527 28.6547C15.9581 24.9 14.9767 21.8707 14.2087 19.5667C13.4407 17.22 12.8434 15.172 12.4167 13.4227H12.0967C11.9687 15.94 11.8621 18.244 11.7767 20.3347C11.7341 22.3827 11.6914 24.388 11.6487 26.3507C11.6487 28.3133 11.6061 30.2973 11.5207 32.3027C11.4781 34.308 11.3927 36.5267 11.2647 38.9587C10.7101 39.172 9.98473 39.3427 9.08873 39.4707C8.19273 39.6413 7.29673 39.7267 6.40073 39.7267C4.52339 39.7267 3.05139 39.428 1.98473 38.8307C0.960728 38.2333 0.448728 37.1453 0.448728 35.5667L2.30473 2.92666C2.64606 2.37199 3.39273 1.77466 4.54473 1.13466C5.69673 0.494659 7.31806 0.17466 9.40873 0.17466C11.6701 0.17466 13.4407 0.537326 14.7207 1.26266C16.0007 1.94533 16.9394 3.07599 17.5367 4.65466C17.9207 5.67866 18.3261 6.85199 18.7527 8.17466C19.2221 9.49733 19.6701 10.8627 20.0967 12.2707C20.5661 13.6787 21.0141 15.0867 21.4407 16.4947C21.8674 17.86 22.2514 19.0973 22.5927 20.2067H22.9127C23.9367 16.6227 24.9607 13.1667 25.9847 9.83866C27.0087 6.46799 27.9474 3.65199 28.8007 1.39066C29.4407 1.04933 30.2514 0.771992 31.2327 0.558659C32.2567 0.302659 33.3874 0.17466 34.6247 0.17466C36.7154 0.17466 38.4221 0.494659 39.7447 1.13466C41.0674 1.73199 41.8354 2.60666 42.0487 3.75866C42.2194 4.61199 42.3901 5.93466 42.5607 7.72666C42.7741 9.47599 42.9874 11.46 43.2007 13.6787C43.4141 15.8973 43.6274 18.244 43.8407 20.7187C44.0541 23.1933 44.2461 25.5827 44.4167 27.8867C44.6301 30.148 44.8007 32.2387 44.9287 34.1587C45.0567 36.036 45.1421 37.4867 45.1847 38.5107C44.4594 38.9373 43.6914 39.236 42.8807 39.4067C42.1127 39.62 41.1101 39.7267 39.8727 39.7267C38.2514 39.7267 36.8861 39.4493 35.7767 38.8947C34.6674 38.34 34.0701 37.252 33.9847 35.6307C33.7287 30.98 33.5581 26.7987 33.4727 23.0867C33.4301 19.3747 33.3447 16.26 33.2167 13.7427H32.8967C32.4701 15.4067 31.8514 17.4973 31.0407 20.0147C30.2301 22.532 29.2487 25.7533 28.0967 29.6787Z" fill="white"/>
</svg>
