<svg width="27" height="22" viewBox="0 0 27 22" fill="none" xmlns="http://www.w3.org/2000/svg">
<path d="M23.9958 0.942139H3.63235C2.09613 0.942139 0.846313 2.07751 0.846313 3.47305V15.6214C0.846313 17.017 2.09613 18.1524 3.63235 18.1524H10.1929C10.273 18.1524 10.3491 18.1873 10.3967 18.2459L12.7903 21.1938C13.0302 21.4893 13.3995 21.6597 13.8036 21.6614H13.8097C14.2115 21.6614 14.5801 21.4943 14.8217 21.2023L17.2697 18.2442C17.3172 18.1866 17.393 18.1523 17.4721 18.1523H23.9958C25.532 18.1523 26.7818 17.0169 26.7818 15.6214V3.47301C26.7818 2.07746 25.532 0.942139 23.9958 0.942139ZM25.2621 15.6214C25.2621 15.7301 25.2451 15.8352 25.214 15.9349L17.4077 9.71861L25.2621 3.79729V15.6214ZM23.9958 2.32264C24.2274 2.32264 24.4446 2.3797 24.6315 2.47877L14.6249 10.0226C14.1563 10.3759 13.4761 10.3759 13.0075 10.0226L2.99911 2.47744C3.18552 2.37919 3.40177 2.32264 3.63235 2.32264H23.9958ZM2.41414 15.9349C2.38299 15.8352 2.36597 15.7301 2.36597 15.6214V3.79406L10.2225 9.71691L2.41414 15.9349ZM16.055 17.4146L13.8114 20.1258L11.6197 17.4264C11.287 17.0165 10.7535 16.7718 10.1929 16.7718H3.66847L11.4067 10.6097L12.037 11.0848C12.5525 11.4735 13.1842 11.6677 13.8162 11.6677C14.448 11.6677 15.0799 11.4734 15.5954 11.0848L16.2234 10.6113L23.9595 16.7718H17.4721C16.9179 16.7719 16.3881 17.0121 16.055 17.4146Z" fill="white"/>
</svg>
