<svg width="25" height="22" viewBox="0 0 25 22" fill="none" xmlns="http://www.w3.org/2000/svg">
<path d="M10.4167 7.33334H16.6667V8.55556H10.4167V7.33334Z" fill="white"/>
<path d="M10.4167 9.77778H16.6667V11H10.4167V9.77778Z" fill="white"/>
<path d="M10.4167 12.2222H16.6667V13.4445H10.4167V12.2222Z" fill="white"/>
<path d="M10.4167 14.6667H16.6667V15.8889H10.4167V14.6667Z" fill="white"/>
<path d="M7.63885 4.88889H9.02774V6.11111H7.63885V4.88889Z" fill="white"/>
<path d="M7.63885 7.33334H9.02774V8.55556H7.63885V7.33334Z" fill="white"/>
<path d="M7.63885 9.77778H9.02774V11H7.63885V9.77778Z" fill="white"/>
<path d="M7.63885 12.2222H9.02774V13.4445H7.63885V12.2222Z" fill="white"/>
<path d="M7.63885 14.6667H9.02774V15.8889H7.63885V14.6667Z" fill="white"/>
<path d="M10.4167 4.88889V6.11111H16.4306C16.1573 5.7327 15.949 5.32085 15.8125 4.88889H10.4167Z" fill="white"/>
<path d="M19.4445 8.07889V19.5556H5.55558V2.44444H15.8195C15.9538 2.01282 16.1597 1.60098 16.4306 1.22222H5.55558C5.18722 1.22222 4.83395 1.35099 4.57348 1.5802C4.31302 1.80941 4.16669 2.12029 4.16669 2.44444V19.5556C4.16669 19.8797 4.31302 20.1906 4.57348 20.4198C4.83395 20.649 5.18722 20.7778 5.55558 20.7778H19.4445C19.8128 20.7778 20.1661 20.649 20.4266 20.4198C20.687 20.1906 20.8334 19.8797 20.8334 19.5556V8.25C20.3637 8.2484 19.8965 8.19084 19.4445 8.07889Z" fill="white"/>
<path d="M20.8334 6.72223C22.751 6.72223 24.3056 5.35421 24.3056 3.66667C24.3056 1.97913 22.751 0.611115 20.8334 0.611115C18.9157 0.611115 17.3611 1.97913 17.3611 3.66667C17.3611 5.35421 18.9157 6.72223 20.8334 6.72223Z" fill="white"/>
</svg>
