<svg width="20" height="27" viewBox="0 0 20 27" fill="none" xmlns="http://www.w3.org/2000/svg">
<path d="M12.5 9.16667C12.5 9.82971 12.2366 10.4656 11.7678 10.9344C11.2989 11.4033 10.663 11.6667 10 11.6667C9.33696 11.6667 8.70107 11.4033 8.23223 10.9344C7.76339 10.4656 7.5 9.82971 7.5 9.16667C7.5 8.50362 7.76339 7.86774 8.23223 7.3989C8.70107 6.93006 9.33696 6.66667 10 6.66667C10.663 6.66667 11.2989 6.93006 11.7678 7.3989C12.2366 7.86774 12.5 8.50362 12.5 9.16667ZM5 14.5833V15C5 15.8841 5.35119 16.7319 5.97631 17.357C6.60143 17.9821 7.44928 18.3333 8.33333 18.3333H11.6667C12.5507 18.3333 13.3986 17.9821 14.0237 17.357C14.6488 16.7319 15 15.8841 15 15V14.5833C15 14.2518 14.8683 13.9339 14.6339 13.6995C14.3995 13.465 14.0815 13.3333 13.75 13.3333H6.25C5.91848 13.3333 5.60054 13.465 5.36612 13.6995C5.1317 13.9339 5 14.2518 5 14.5833ZM0 3.33333V23.3333C0 24.2174 0.351189 25.0652 0.976311 25.6904C1.60143 26.3155 2.44928 26.6667 3.33333 26.6667H19.1667C19.3877 26.6667 19.5996 26.5789 19.7559 26.4226C19.9122 26.2663 20 26.0543 20 25.8333C20 25.6123 19.9122 25.4004 19.7559 25.2441C19.5996 25.0878 19.3877 25 19.1667 25H3.33333C2.89131 25 2.46738 24.8244 2.15482 24.5118C1.84226 24.1993 1.66667 23.7754 1.66667 23.3333H18.3333C18.7754 23.3333 19.1993 23.1577 19.5118 22.8452C19.8244 22.5326 20 22.1087 20 21.6667V3.33333C20 2.44928 19.6488 1.60143 19.0237 0.976311C18.3986 0.351189 17.5507 0 16.6667 0H3.33333C2.44928 0 1.60143 0.351189 0.976311 0.976311C0.351189 1.60143 0 2.44928 0 3.33333ZM16.6667 1.66667C17.1087 1.66667 17.5326 1.84226 17.8452 2.15482C18.1577 2.46738 18.3333 2.89131 18.3333 3.33333V21.6667H1.66667V3.33333C1.66667 2.89131 1.84226 2.46738 2.15482 2.15482C2.46738 1.84226 2.89131 1.66667 3.33333 1.66667H16.6667Z" fill="#FFFAF7"/>
</svg>
